<svg xmlns="http://www.w3.org/2000/svg" width="185.403" height="50.8" viewBox="0 0 185.403 50.8">
  <g id="Calque_1" data-name="Calque 1" transform="translate(0 0)">
    <g id="Group_121" data-name="Group 121" transform="translate(0 0)">
      <path id="Path_14" data-name="Path 14" d="M144.039,17.406a21.247,21.247,0,0,1,4.446-6.565,21.027,21.027,0,0,1,6.59-4.459,19.87,19.87,0,0,1,7.982-1.632A19.356,19.356,0,0,1,171,6.394a21.539,21.539,0,0,1,6.521,4.516,16.98,16.98,0,0,1,2.176,2.536h5.7a23.512,23.512,0,0,0-1.967-3.156,26.494,26.494,0,0,0-2.441-2.821A25.965,25.965,0,0,0,172.949,2a25.264,25.264,0,0,0-19.727,0,25.708,25.708,0,0,0-13.548,13.548,24.5,24.5,0,0,0-2,9.848,24.4,24.4,0,0,0,2,9.848A25.708,25.708,0,0,0,153.223,48.8a25.264,25.264,0,0,0,19.727,0,25.965,25.965,0,0,0,8.045-5.465,25.213,25.213,0,0,0,2.441-2.821,23.51,23.51,0,0,0,1.967-3.156h-5.635a21.069,21.069,0,0,1-8.76,7.1,20.464,20.464,0,0,1-15.926-.038,20.907,20.907,0,0,1-11.037-11.056,19.93,19.93,0,0,1-1.632-7.994,19.662,19.662,0,0,1,1.632-7.956m-81.665,4.94L47.233,1.632H42.477V49.175h4.756V9.708L62.381,30.352,77.661,9.639V49.162h4.756V1.632H77.661L62.381,22.345Zm-39.631,3.6H12.7l5.028-16.5ZM20.239,1.632H15.211L0,49.168H5.231l5.907-18.474h13.1l5.977,18.474H35.45Z" transform="translate(0 0)" fill="#fff"/>
      <path id="Path_15" data-name="Path 15" d="M162.747,29.709l15.141,20.713h4.756V2.88h-4.756V42.34L162.747,21.7,147.466,42.409V2.88H142.71V50.423h4.756Z" transform="translate(-52.45 -1.058)" fill="#fff"/>
    </g>
  </g>
</svg>
